<mxfile host="Electron" agent="Mozilla/5.0 (Macintosh; Intel Mac OS X 10_15_7) AppleWebKit/537.36 (KHTML, like Gecko) draw.io/24.7.17 Chrome/128.0.6613.36 Electron/32.0.1 Safari/537.36" version="24.7.17">
  <diagram id="C5RBs43oDa-KdzZeNtuy" name="Page-1">
    <mxGraphModel dx="682" dy="471" grid="1" gridSize="10" guides="1" tooltips="1" connect="1" arrows="1" fold="1" page="1" pageScale="1" pageWidth="1169" pageHeight="827" math="0" shadow="0">
      <root>
        <mxCell id="WIyWlLk6GJQsqaUBKTNV-0" />
        <mxCell id="WIyWlLk6GJQsqaUBKTNV-1" parent="WIyWlLk6GJQsqaUBKTNV-0" />
        <mxCell id="w6sRyr5rk-wQDd2xxj7X-36" style="edgeStyle=orthogonalEdgeStyle;rounded=0;orthogonalLoop=1;jettySize=auto;html=1;exitX=1;exitY=1;exitDx=0;exitDy=0;entryX=0.5;entryY=0;entryDx=0;entryDy=0;curved=1;fontFamily=宋体-简;" parent="WIyWlLk6GJQsqaUBKTNV-1" source="w6sRyr5rk-wQDd2xxj7X-29" target="w6sRyr5rk-wQDd2xxj7X-34" edge="1">
          <mxGeometry relative="1" as="geometry">
            <Array as="points">
              <mxPoint x="242" y="130" />
              <mxPoint x="260" y="130" />
            </Array>
          </mxGeometry>
        </mxCell>
        <mxCell id="w6sRyr5rk-wQDd2xxj7X-30" value="处理选课范围" style="ellipse;whiteSpace=wrap;html=1;fontFamily=宋体-简;" parent="WIyWlLk6GJQsqaUBKTNV-1" vertex="1">
          <mxGeometry x="360" y="40" width="120" height="80" as="geometry" />
        </mxCell>
        <mxCell id="w6sRyr5rk-wQDd2xxj7X-34" value="&lt;div&gt;&lt;br&gt;&lt;/div&gt;&lt;div&gt;&lt;br&gt;&lt;/div&gt;&lt;div&gt;开课申请&lt;/div&gt;" style="shape=partialRectangle;whiteSpace=wrap;html=1;left=0;right=0;fillColor=none;fontFamily=宋体-简;" parent="WIyWlLk6GJQsqaUBKTNV-1" vertex="1">
          <mxGeometry x="200" y="160" width="120" height="10" as="geometry" />
        </mxCell>
        <mxCell id="w6sRyr5rk-wQDd2xxj7X-56" style="edgeStyle=orthogonalEdgeStyle;rounded=0;orthogonalLoop=1;jettySize=auto;html=1;exitX=0.5;exitY=1;exitDx=0;exitDy=0;entryX=0.25;entryY=0;entryDx=0;entryDy=0;curved=1;fontFamily=宋体-简;" parent="WIyWlLk6GJQsqaUBKTNV-1" source="w6sRyr5rk-wQDd2xxj7X-42" target="w6sRyr5rk-wQDd2xxj7X-55" edge="1">
          <mxGeometry relative="1" as="geometry" />
        </mxCell>
        <mxCell id="w6sRyr5rk-wQDd2xxj7X-58" value="查看课程" style="edgeLabel;html=1;align=center;verticalAlign=middle;resizable=0;points=[];fontFamily=宋体-简;" parent="w6sRyr5rk-wQDd2xxj7X-56" vertex="1" connectable="0">
          <mxGeometry relative="1" as="geometry">
            <mxPoint as="offset" />
          </mxGeometry>
        </mxCell>
        <mxCell id="w6sRyr5rk-wQDd2xxj7X-42" value="&lt;div&gt;&lt;br&gt;&lt;/div&gt;&lt;div&gt;&lt;br&gt;&lt;/div&gt;&lt;div&gt;教学班信息&lt;/div&gt;" style="shape=partialRectangle;whiteSpace=wrap;html=1;left=0;right=0;fillColor=none;fontFamily=宋体-简;" parent="WIyWlLk6GJQsqaUBKTNV-1" vertex="1">
          <mxGeometry x="420" y="160" width="120" height="10" as="geometry" />
        </mxCell>
        <mxCell id="w6sRyr5rk-wQDd2xxj7X-44" value="学院教务" style="rounded=0;whiteSpace=wrap;html=1;fontFamily=宋体-简;" parent="WIyWlLk6GJQsqaUBKTNV-1" vertex="1">
          <mxGeometry x="260" y="250" width="120" height="60" as="geometry" />
        </mxCell>
        <mxCell id="w6sRyr5rk-wQDd2xxj7X-45" style="edgeStyle=orthogonalEdgeStyle;rounded=0;orthogonalLoop=1;jettySize=auto;html=1;exitX=0.75;exitY=0;exitDx=0;exitDy=0;entryX=0;entryY=1;entryDx=0;entryDy=0;curved=1;fontFamily=宋体-简;" parent="WIyWlLk6GJQsqaUBKTNV-1" source="w6sRyr5rk-wQDd2xxj7X-44" target="w6sRyr5rk-wQDd2xxj7X-30" edge="1">
          <mxGeometry relative="1" as="geometry" />
        </mxCell>
        <mxCell id="w6sRyr5rk-wQDd2xxj7X-46" value="审核开课" style="edgeLabel;html=1;align=center;verticalAlign=middle;resizable=0;points=[];fontFamily=宋体-简;" parent="w6sRyr5rk-wQDd2xxj7X-45" vertex="1" connectable="0">
          <mxGeometry x="0.1426" y="6" relative="1" as="geometry">
            <mxPoint x="-2" y="-11" as="offset" />
          </mxGeometry>
        </mxCell>
        <mxCell id="w6sRyr5rk-wQDd2xxj7X-47" style="edgeStyle=orthogonalEdgeStyle;rounded=0;orthogonalLoop=1;jettySize=auto;html=1;exitX=0.5;exitY=1;exitDx=0;exitDy=0;entryX=0.25;entryY=0;entryDx=0;entryDy=0;curved=1;fontFamily=宋体-简;" parent="WIyWlLk6GJQsqaUBKTNV-1" source="w6sRyr5rk-wQDd2xxj7X-34" target="w6sRyr5rk-wQDd2xxj7X-44" edge="1">
          <mxGeometry relative="1" as="geometry" />
        </mxCell>
        <mxCell id="w6sRyr5rk-wQDd2xxj7X-51" value="查看开课申请" style="edgeLabel;html=1;align=center;verticalAlign=middle;resizable=0;points=[];fontFamily=宋体-简;" parent="w6sRyr5rk-wQDd2xxj7X-47" vertex="1" connectable="0">
          <mxGeometry relative="1" as="geometry">
            <mxPoint x="-9" as="offset" />
          </mxGeometry>
        </mxCell>
        <mxCell id="w6sRyr5rk-wQDd2xxj7X-61" style="edgeStyle=orthogonalEdgeStyle;rounded=0;orthogonalLoop=1;jettySize=auto;html=1;exitX=0.75;exitY=0;exitDx=0;exitDy=0;entryX=0;entryY=1;entryDx=0;entryDy=0;curved=1;fontFamily=宋体-简;" parent="WIyWlLk6GJQsqaUBKTNV-1" source="w6sRyr5rk-wQDd2xxj7X-55" target="w6sRyr5rk-wQDd2xxj7X-60" edge="1">
          <mxGeometry relative="1" as="geometry" />
        </mxCell>
        <mxCell id="e8BeMELJpszKNNS3v1wj-13" value="选课" style="edgeLabel;html=1;align=center;verticalAlign=middle;resizable=0;points=[];fontFamily=宋体-简;" parent="w6sRyr5rk-wQDd2xxj7X-61" vertex="1" connectable="0">
          <mxGeometry x="-0.0269" y="5" relative="1" as="geometry">
            <mxPoint x="3" y="-10" as="offset" />
          </mxGeometry>
        </mxCell>
        <mxCell id="w6sRyr5rk-wQDd2xxj7X-55" value="学生" style="rounded=0;whiteSpace=wrap;html=1;fontFamily=宋体-简;" parent="WIyWlLk6GJQsqaUBKTNV-1" vertex="1">
          <mxGeometry x="480" y="250" width="120" height="60" as="geometry" />
        </mxCell>
        <mxCell id="w6sRyr5rk-wQDd2xxj7X-64" style="edgeStyle=orthogonalEdgeStyle;rounded=0;orthogonalLoop=1;jettySize=auto;html=1;exitX=0.5;exitY=1;exitDx=0;exitDy=0;entryX=0.25;entryY=0;entryDx=0;entryDy=0;curved=1;fontFamily=宋体-简;" parent="WIyWlLk6GJQsqaUBKTNV-1" source="w6sRyr5rk-wQDd2xxj7X-59" target="w6sRyr5rk-wQDd2xxj7X-63" edge="1">
          <mxGeometry relative="1" as="geometry" />
        </mxCell>
        <mxCell id="w6sRyr5rk-wQDd2xxj7X-65" value="查看预选记录" style="edgeLabel;html=1;align=center;verticalAlign=middle;resizable=0;points=[];fontFamily=宋体-简;" parent="w6sRyr5rk-wQDd2xxj7X-64" vertex="1" connectable="0">
          <mxGeometry relative="1" as="geometry">
            <mxPoint x="-5" as="offset" />
          </mxGeometry>
        </mxCell>
        <mxCell id="w6sRyr5rk-wQDd2xxj7X-59" value="&lt;div&gt;&lt;br&gt;&lt;/div&gt;&lt;div&gt;&lt;br&gt;&lt;/div&gt;&lt;div&gt;预选记录&lt;/div&gt;" style="shape=partialRectangle;whiteSpace=wrap;html=1;left=0;right=0;fillColor=none;fontFamily=宋体-简;" parent="WIyWlLk6GJQsqaUBKTNV-1" vertex="1">
          <mxGeometry x="640" y="160" width="120" height="10" as="geometry" />
        </mxCell>
        <mxCell id="w6sRyr5rk-wQDd2xxj7X-62" style="edgeStyle=orthogonalEdgeStyle;rounded=0;orthogonalLoop=1;jettySize=auto;html=1;exitX=1;exitY=1;exitDx=0;exitDy=0;entryX=0.5;entryY=0;entryDx=0;entryDy=0;curved=1;fontFamily=宋体-简;" parent="WIyWlLk6GJQsqaUBKTNV-1" source="w6sRyr5rk-wQDd2xxj7X-60" target="w6sRyr5rk-wQDd2xxj7X-59" edge="1">
          <mxGeometry relative="1" as="geometry">
            <Array as="points">
              <mxPoint x="682" y="130" />
              <mxPoint x="700" y="130" />
            </Array>
          </mxGeometry>
        </mxCell>
        <mxCell id="w6sRyr5rk-wQDd2xxj7X-60" value="处理选课申请" style="ellipse;whiteSpace=wrap;html=1;fontFamily=宋体-简;" parent="WIyWlLk6GJQsqaUBKTNV-1" vertex="1">
          <mxGeometry x="580" y="40" width="120" height="80" as="geometry" />
        </mxCell>
        <mxCell id="w6sRyr5rk-wQDd2xxj7X-69" style="edgeStyle=orthogonalEdgeStyle;rounded=0;orthogonalLoop=1;jettySize=auto;html=1;exitX=0.75;exitY=0;exitDx=0;exitDy=0;entryX=0;entryY=1;entryDx=0;entryDy=0;curved=1;fontFamily=宋体-简;" parent="WIyWlLk6GJQsqaUBKTNV-1" source="w6sRyr5rk-wQDd2xxj7X-63" target="w6sRyr5rk-wQDd2xxj7X-68" edge="1">
          <mxGeometry relative="1" as="geometry" />
        </mxCell>
        <mxCell id="w6sRyr5rk-wQDd2xxj7X-70" value="抽签选课" style="edgeLabel;html=1;align=center;verticalAlign=middle;resizable=0;points=[];fontFamily=宋体-简;" parent="w6sRyr5rk-wQDd2xxj7X-69" vertex="1" connectable="0">
          <mxGeometry x="-0.2133" relative="1" as="geometry">
            <mxPoint x="18" y="-15" as="offset" />
          </mxGeometry>
        </mxCell>
        <mxCell id="w6sRyr5rk-wQDd2xxj7X-63" value="学校管理员" style="rounded=0;whiteSpace=wrap;html=1;fontFamily=宋体-简;" parent="WIyWlLk6GJQsqaUBKTNV-1" vertex="1">
          <mxGeometry x="700" y="250" width="120" height="60" as="geometry" />
        </mxCell>
        <mxCell id="w6sRyr5rk-wQDd2xxj7X-72" style="edgeStyle=orthogonalEdgeStyle;rounded=0;orthogonalLoop=1;jettySize=auto;html=1;exitX=1;exitY=1;exitDx=0;exitDy=0;entryX=0.5;entryY=0;entryDx=0;entryDy=0;curved=1;fontFamily=宋体-简;" parent="WIyWlLk6GJQsqaUBKTNV-1" source="w6sRyr5rk-wQDd2xxj7X-68" target="w6sRyr5rk-wQDd2xxj7X-71" edge="1">
          <mxGeometry relative="1" as="geometry" />
        </mxCell>
        <mxCell id="w6sRyr5rk-wQDd2xxj7X-68" value="确定选中课程" style="ellipse;whiteSpace=wrap;html=1;fontFamily=宋体-简;" parent="WIyWlLk6GJQsqaUBKTNV-1" vertex="1">
          <mxGeometry x="800" y="40" width="120" height="80" as="geometry" />
        </mxCell>
        <mxCell id="w6sRyr5rk-wQDd2xxj7X-107" style="edgeStyle=orthogonalEdgeStyle;rounded=0;orthogonalLoop=1;jettySize=auto;html=1;exitX=0.75;exitY=0;exitDx=0;exitDy=0;entryX=0;entryY=0.5;entryDx=0;entryDy=0;curved=1;fontFamily=宋体-简;" parent="WIyWlLk6GJQsqaUBKTNV-1" source="w6sRyr5rk-wQDd2xxj7X-71" target="w6sRyr5rk-wQDd2xxj7X-103" edge="1">
          <mxGeometry relative="1" as="geometry" />
        </mxCell>
        <mxCell id="w6sRyr5rk-wQDd2xxj7X-109" style="edgeStyle=orthogonalEdgeStyle;rounded=0;orthogonalLoop=1;jettySize=auto;html=1;exitX=0.5;exitY=1;exitDx=0;exitDy=0;entryX=0.5;entryY=0;entryDx=0;entryDy=0;curved=1;fontFamily=宋体-简;" parent="WIyWlLk6GJQsqaUBKTNV-1" source="w6sRyr5rk-wQDd2xxj7X-71" target="w6sRyr5rk-wQDd2xxj7X-108" edge="1">
          <mxGeometry relative="1" as="geometry" />
        </mxCell>
        <mxCell id="w6sRyr5rk-wQDd2xxj7X-110" value="查看课表" style="edgeLabel;html=1;align=center;verticalAlign=middle;resizable=0;points=[];fontFamily=宋体-简;" parent="w6sRyr5rk-wQDd2xxj7X-109" vertex="1" connectable="0">
          <mxGeometry x="-0.0286" y="2" relative="1" as="geometry">
            <mxPoint as="offset" />
          </mxGeometry>
        </mxCell>
        <mxCell id="w6sRyr5rk-wQDd2xxj7X-71" value="&lt;div&gt;&lt;br&gt;&lt;/div&gt;&lt;div&gt;&lt;br&gt;&lt;/div&gt;&lt;div&gt;选课记录&lt;/div&gt;" style="shape=partialRectangle;whiteSpace=wrap;html=1;left=0;right=0;fillColor=none;fontFamily=宋体-简;" parent="WIyWlLk6GJQsqaUBKTNV-1" vertex="1">
          <mxGeometry x="860" y="160" width="120" height="10" as="geometry" />
        </mxCell>
        <mxCell id="w6sRyr5rk-wQDd2xxj7X-29" value="处理开课申请" style="ellipse;whiteSpace=wrap;html=1;fontFamily=宋体-简;" parent="WIyWlLk6GJQsqaUBKTNV-1" vertex="1">
          <mxGeometry x="140" y="40" width="120" height="80" as="geometry" />
        </mxCell>
        <mxCell id="w6sRyr5rk-wQDd2xxj7X-76" style="edgeStyle=orthogonalEdgeStyle;rounded=0;orthogonalLoop=1;jettySize=auto;html=1;exitX=0.75;exitY=0;exitDx=0;exitDy=0;entryX=0;entryY=1;entryDx=0;entryDy=0;curved=1;fontFamily=宋体-简;" parent="WIyWlLk6GJQsqaUBKTNV-1" source="w6sRyr5rk-wQDd2xxj7X-75" target="w6sRyr5rk-wQDd2xxj7X-29" edge="1">
          <mxGeometry relative="1" as="geometry" />
        </mxCell>
        <mxCell id="w6sRyr5rk-wQDd2xxj7X-77" value="开课" style="edgeLabel;html=1;align=center;verticalAlign=middle;resizable=0;points=[];fontFamily=宋体-简;" parent="w6sRyr5rk-wQDd2xxj7X-76" vertex="1" connectable="0">
          <mxGeometry x="0.0448" y="2" relative="1" as="geometry">
            <mxPoint x="-3" y="-13" as="offset" />
          </mxGeometry>
        </mxCell>
        <mxCell id="w6sRyr5rk-wQDd2xxj7X-75" value="教师" style="rounded=0;whiteSpace=wrap;html=1;fontFamily=宋体-简;" parent="WIyWlLk6GJQsqaUBKTNV-1" vertex="1">
          <mxGeometry x="40" y="250" width="120" height="60" as="geometry" />
        </mxCell>
        <mxCell id="w6sRyr5rk-wQDd2xxj7X-78" style="edgeStyle=orthogonalEdgeStyle;rounded=0;orthogonalLoop=1;jettySize=auto;html=1;exitX=1;exitY=1;exitDx=0;exitDy=0;entryX=0.5;entryY=0;entryDx=0;entryDy=0;curved=1;fontFamily=宋体-简;" parent="WIyWlLk6GJQsqaUBKTNV-1" source="w6sRyr5rk-wQDd2xxj7X-103" target="w6sRyr5rk-wQDd2xxj7X-81" edge="1">
          <mxGeometry relative="1" as="geometry" />
        </mxCell>
        <mxCell id="w6sRyr5rk-wQDd2xxj7X-79" style="edgeStyle=orthogonalEdgeStyle;rounded=0;orthogonalLoop=1;jettySize=auto;html=1;exitX=0;exitY=1;exitDx=0;exitDy=0;entryX=0.5;entryY=0;entryDx=0;entryDy=0;curved=1;fontFamily=宋体-简;" parent="WIyWlLk6GJQsqaUBKTNV-1" source="w6sRyr5rk-wQDd2xxj7X-80" target="w6sRyr5rk-wQDd2xxj7X-84" edge="1">
          <mxGeometry relative="1" as="geometry">
            <Array as="points">
              <mxPoint x="1019" y="440" />
              <mxPoint x="1001" y="440" />
            </Array>
          </mxGeometry>
        </mxCell>
        <mxCell id="w6sRyr5rk-wQDd2xxj7X-80" value="处理评教" style="ellipse;whiteSpace=wrap;html=1;fontFamily=宋体-简;" parent="WIyWlLk6GJQsqaUBKTNV-1" vertex="1">
          <mxGeometry x="1001" y="350" width="120" height="80" as="geometry" />
        </mxCell>
        <mxCell id="w6sRyr5rk-wQDd2xxj7X-81" value="&lt;div&gt;&lt;br&gt;&lt;/div&gt;&lt;div&gt;&lt;br&gt;&lt;/div&gt;&lt;div&gt;成绩记录&lt;/div&gt;" style="shape=partialRectangle;whiteSpace=wrap;html=1;left=0;right=0;fillColor=none;fontFamily=宋体-简;" parent="WIyWlLk6GJQsqaUBKTNV-1" vertex="1">
          <mxGeometry x="1161" y="470" width="120" height="10" as="geometry" />
        </mxCell>
        <mxCell id="w6sRyr5rk-wQDd2xxj7X-82" style="edgeStyle=orthogonalEdgeStyle;rounded=0;orthogonalLoop=1;jettySize=auto;html=1;exitX=0.5;exitY=1;exitDx=0;exitDy=0;entryX=0.75;entryY=0;entryDx=0;entryDy=0;curved=1;fontFamily=宋体-简;" parent="WIyWlLk6GJQsqaUBKTNV-1" source="w6sRyr5rk-wQDd2xxj7X-84" target="w6sRyr5rk-wQDd2xxj7X-91" edge="1">
          <mxGeometry relative="1" as="geometry" />
        </mxCell>
        <mxCell id="w6sRyr5rk-wQDd2xxj7X-83" value="查看评教" style="edgeLabel;html=1;align=center;verticalAlign=middle;resizable=0;points=[];fontFamily=宋体-简;" parent="w6sRyr5rk-wQDd2xxj7X-82" vertex="1" connectable="0">
          <mxGeometry x="-0.1" relative="1" as="geometry">
            <mxPoint as="offset" />
          </mxGeometry>
        </mxCell>
        <mxCell id="w6sRyr5rk-wQDd2xxj7X-84" value="&lt;div&gt;&lt;br&gt;&lt;/div&gt;&lt;div&gt;&lt;br&gt;&lt;/div&gt;&lt;div&gt;评教记录&lt;/div&gt;" style="shape=partialRectangle;whiteSpace=wrap;html=1;left=0;right=0;fillColor=none;fontFamily=宋体-简;" parent="WIyWlLk6GJQsqaUBKTNV-1" vertex="1">
          <mxGeometry x="941" y="470" width="120" height="10" as="geometry" />
        </mxCell>
        <mxCell id="w6sRyr5rk-wQDd2xxj7X-85" value="学生" style="rounded=0;whiteSpace=wrap;html=1;fontFamily=宋体-简;" parent="WIyWlLk6GJQsqaUBKTNV-1" vertex="1">
          <mxGeometry x="1101" y="570" width="120" height="60" as="geometry" />
        </mxCell>
        <mxCell id="w6sRyr5rk-wQDd2xxj7X-86" style="edgeStyle=orthogonalEdgeStyle;rounded=0;orthogonalLoop=1;jettySize=auto;html=1;exitX=0.25;exitY=0;exitDx=0;exitDy=0;entryX=1;entryY=1;entryDx=0;entryDy=0;curved=1;fontFamily=宋体-简;" parent="WIyWlLk6GJQsqaUBKTNV-1" source="w6sRyr5rk-wQDd2xxj7X-85" target="w6sRyr5rk-wQDd2xxj7X-80" edge="1">
          <mxGeometry relative="1" as="geometry">
            <mxPoint x="851" y="550" as="sourcePoint" />
          </mxGeometry>
        </mxCell>
        <mxCell id="w6sRyr5rk-wQDd2xxj7X-87" value="评教" style="edgeLabel;html=1;align=center;verticalAlign=middle;resizable=0;points=[];fontFamily=宋体-简;" parent="w6sRyr5rk-wQDd2xxj7X-86" vertex="1" connectable="0">
          <mxGeometry x="0.1426" y="6" relative="1" as="geometry">
            <mxPoint x="14" y="-12" as="offset" />
          </mxGeometry>
        </mxCell>
        <mxCell id="w6sRyr5rk-wQDd2xxj7X-88" style="edgeStyle=orthogonalEdgeStyle;rounded=0;orthogonalLoop=1;jettySize=auto;html=1;exitX=0.5;exitY=1;exitDx=0;exitDy=0;curved=1;fontFamily=宋体-简;entryX=0.75;entryY=0;entryDx=0;entryDy=0;" parent="WIyWlLk6GJQsqaUBKTNV-1" source="w6sRyr5rk-wQDd2xxj7X-81" target="w6sRyr5rk-wQDd2xxj7X-85" edge="1">
          <mxGeometry relative="1" as="geometry">
            <mxPoint x="1143" y="559" as="targetPoint" />
          </mxGeometry>
        </mxCell>
        <mxCell id="w6sRyr5rk-wQDd2xxj7X-89" value="查看成绩" style="edgeLabel;html=1;align=center;verticalAlign=middle;resizable=0;points=[];fontFamily=宋体-简;" parent="w6sRyr5rk-wQDd2xxj7X-88" vertex="1" connectable="0">
          <mxGeometry x="0.0762" y="3" relative="1" as="geometry">
            <mxPoint as="offset" />
          </mxGeometry>
        </mxCell>
        <mxCell id="w6sRyr5rk-wQDd2xxj7X-91" value="学院教务" style="rounded=0;whiteSpace=wrap;html=1;fontFamily=宋体-简;" parent="WIyWlLk6GJQsqaUBKTNV-1" vertex="1">
          <mxGeometry x="881" y="570" width="120" height="60" as="geometry" />
        </mxCell>
        <mxCell id="w6sRyr5rk-wQDd2xxj7X-103" value="处理成绩录入" style="ellipse;whiteSpace=wrap;html=1;fontFamily=宋体-简;" parent="WIyWlLk6GJQsqaUBKTNV-1" vertex="1">
          <mxGeometry x="1161" y="40" width="120" height="80" as="geometry" />
        </mxCell>
        <mxCell id="w6sRyr5rk-wQDd2xxj7X-104" style="edgeStyle=orthogonalEdgeStyle;rounded=0;orthogonalLoop=1;jettySize=auto;html=1;exitX=0.5;exitY=0;exitDx=0;exitDy=0;entryX=0;entryY=1;entryDx=0;entryDy=0;curved=1;fontFamily=宋体-简;" parent="WIyWlLk6GJQsqaUBKTNV-1" source="w6sRyr5rk-wQDd2xxj7X-106" target="w6sRyr5rk-wQDd2xxj7X-103" edge="1">
          <mxGeometry relative="1" as="geometry" />
        </mxCell>
        <mxCell id="w6sRyr5rk-wQDd2xxj7X-105" value="录入成绩" style="edgeLabel;html=1;align=center;verticalAlign=middle;resizable=0;points=[];fontFamily=宋体-简;" parent="w6sRyr5rk-wQDd2xxj7X-104" vertex="1" connectable="0">
          <mxGeometry x="0.0448" y="2" relative="1" as="geometry">
            <mxPoint y="-13" as="offset" />
          </mxGeometry>
        </mxCell>
        <mxCell id="w6sRyr5rk-wQDd2xxj7X-106" value="教师" style="rounded=0;whiteSpace=wrap;html=1;fontFamily=宋体-简;" parent="WIyWlLk6GJQsqaUBKTNV-1" vertex="1">
          <mxGeometry x="1080" y="250" width="120" height="60" as="geometry" />
        </mxCell>
        <mxCell id="w6sRyr5rk-wQDd2xxj7X-108" value="学生" style="rounded=0;whiteSpace=wrap;html=1;fontFamily=宋体-简;" parent="WIyWlLk6GJQsqaUBKTNV-1" vertex="1">
          <mxGeometry x="920" y="250" width="120" height="60" as="geometry" />
        </mxCell>
        <mxCell id="w6sRyr5rk-wQDd2xxj7X-112" style="edgeStyle=orthogonalEdgeStyle;rounded=0;orthogonalLoop=1;jettySize=auto;html=1;exitX=0.5;exitY=1;exitDx=0;exitDy=0;curved=1;fontFamily=宋体-简;entryX=0.5;entryY=0;entryDx=0;entryDy=0;" parent="WIyWlLk6GJQsqaUBKTNV-1" source="w6sRyr5rk-wQDd2xxj7X-75" target="w6sRyr5rk-wQDd2xxj7X-116" edge="1">
          <mxGeometry relative="1" as="geometry">
            <mxPoint x="160" y="280" as="targetPoint" />
          </mxGeometry>
        </mxCell>
        <mxCell id="e8BeMELJpszKNNS3v1wj-7" value="课程申报" style="edgeLabel;html=1;align=center;verticalAlign=middle;resizable=0;points=[];fontFamily=宋体-简;" parent="w6sRyr5rk-wQDd2xxj7X-112" vertex="1" connectable="0">
          <mxGeometry x="0.0892" y="-3" relative="1" as="geometry">
            <mxPoint as="offset" />
          </mxGeometry>
        </mxCell>
        <mxCell id="w6sRyr5rk-wQDd2xxj7X-116" value="处理课程申报" style="ellipse;whiteSpace=wrap;html=1;fontFamily=宋体-简;" parent="WIyWlLk6GJQsqaUBKTNV-1" vertex="1">
          <mxGeometry x="140" y="350" width="120" height="80" as="geometry" />
        </mxCell>
        <mxCell id="w6sRyr5rk-wQDd2xxj7X-117" style="edgeStyle=orthogonalEdgeStyle;rounded=0;orthogonalLoop=1;jettySize=auto;html=1;exitX=0.25;exitY=0;exitDx=0;exitDy=0;entryX=0.5;entryY=1;entryDx=0;entryDy=0;curved=1;fontFamily=宋体-简;startArrow=classic;startFill=1;endArrow=none;endFill=0;" parent="WIyWlLk6GJQsqaUBKTNV-1" source="w6sRyr5rk-wQDd2xxj7X-119" target="e8BeMELJpszKNNS3v1wj-8" edge="1">
          <mxGeometry relative="1" as="geometry" />
        </mxCell>
        <mxCell id="w6sRyr5rk-wQDd2xxj7X-118" value="查看课程申报" style="edgeLabel;html=1;align=center;verticalAlign=middle;resizable=0;points=[];fontFamily=宋体-简;" parent="w6sRyr5rk-wQDd2xxj7X-117" vertex="1" connectable="0">
          <mxGeometry x="0.0448" y="2" relative="1" as="geometry">
            <mxPoint as="offset" />
          </mxGeometry>
        </mxCell>
        <mxCell id="w6sRyr5rk-wQDd2xxj7X-119" value="学校管理员" style="rounded=0;whiteSpace=wrap;html=1;fontFamily=宋体-简;" parent="WIyWlLk6GJQsqaUBKTNV-1" vertex="1">
          <mxGeometry x="260" y="570" width="120" height="60" as="geometry" />
        </mxCell>
        <mxCell id="e8BeMELJpszKNNS3v1wj-5" style="edgeStyle=orthogonalEdgeStyle;rounded=0;orthogonalLoop=1;jettySize=auto;html=1;exitX=0.75;exitY=1;exitDx=0;exitDy=0;entryX=0.5;entryY=0;entryDx=0;entryDy=0;curved=1;fontFamily=宋体-简;" parent="WIyWlLk6GJQsqaUBKTNV-1" source="w6sRyr5rk-wQDd2xxj7X-71" target="w6sRyr5rk-wQDd2xxj7X-106" edge="1">
          <mxGeometry relative="1" as="geometry">
            <mxPoint x="1150" y="180" as="sourcePoint" />
            <mxPoint x="1210" y="260" as="targetPoint" />
            <Array as="points">
              <mxPoint x="1140" y="190" />
              <mxPoint x="1420" y="190" />
            </Array>
          </mxGeometry>
        </mxCell>
        <mxCell id="e8BeMELJpszKNNS3v1wj-6" value="查看选课结果" style="edgeLabel;html=1;align=center;verticalAlign=middle;resizable=0;points=[];fontFamily=宋体-简;" parent="e8BeMELJpszKNNS3v1wj-5" vertex="1" connectable="0">
          <mxGeometry x="-0.0286" y="2" relative="1" as="geometry">
            <mxPoint as="offset" />
          </mxGeometry>
        </mxCell>
        <mxCell id="e8BeMELJpszKNNS3v1wj-8" value="&lt;div&gt;&lt;br&gt;&lt;/div&gt;&lt;div&gt;&lt;br&gt;&lt;/div&gt;&lt;div&gt;待审核课程申报&lt;/div&gt;" style="shape=partialRectangle;whiteSpace=wrap;html=1;left=0;right=0;fillColor=none;fontFamily=宋体-简;" parent="WIyWlLk6GJQsqaUBKTNV-1" vertex="1">
          <mxGeometry x="200" y="470" width="120" height="10" as="geometry" />
        </mxCell>
        <mxCell id="e8BeMELJpszKNNS3v1wj-10" style="edgeStyle=orthogonalEdgeStyle;rounded=0;orthogonalLoop=1;jettySize=auto;html=1;exitX=1;exitY=1;exitDx=0;exitDy=0;entryX=0.5;entryY=0;entryDx=0;entryDy=0;curved=1;fontFamily=宋体-简;" parent="WIyWlLk6GJQsqaUBKTNV-1" source="w6sRyr5rk-wQDd2xxj7X-30" target="w6sRyr5rk-wQDd2xxj7X-42" edge="1">
          <mxGeometry relative="1" as="geometry">
            <mxPoint x="462" y="108" as="sourcePoint" />
            <mxPoint x="480" y="160" as="targetPoint" />
            <Array as="points">
              <mxPoint x="462" y="130" />
              <mxPoint x="480" y="130" />
            </Array>
          </mxGeometry>
        </mxCell>
        <mxCell id="e8BeMELJpszKNNS3v1wj-15" style="edgeStyle=orthogonalEdgeStyle;rounded=0;orthogonalLoop=1;jettySize=auto;html=1;exitX=1;exitY=1;exitDx=0;exitDy=0;entryX=0.5;entryY=0;entryDx=0;entryDy=0;curved=1;fontFamily=宋体-简;" parent="WIyWlLk6GJQsqaUBKTNV-1" source="w6sRyr5rk-wQDd2xxj7X-116" target="e8BeMELJpszKNNS3v1wj-8" edge="1">
          <mxGeometry relative="1" as="geometry">
            <mxPoint x="242" y="418" as="sourcePoint" />
            <mxPoint x="260" y="470" as="targetPoint" />
            <Array as="points">
              <mxPoint x="242" y="440" />
              <mxPoint x="260" y="440" />
            </Array>
          </mxGeometry>
        </mxCell>
        <mxCell id="1-i0P-AGlGG9_WLI7BTQ-0" style="edgeStyle=orthogonalEdgeStyle;rounded=0;orthogonalLoop=1;jettySize=auto;html=1;exitX=0.75;exitY=0;exitDx=0;exitDy=0;curved=1;fontFamily=宋体-简;" edge="1" parent="WIyWlLk6GJQsqaUBKTNV-1" source="w6sRyr5rk-wQDd2xxj7X-119">
          <mxGeometry relative="1" as="geometry">
            <mxPoint x="370" y="545.74" as="sourcePoint" />
            <mxPoint x="420" y="510" as="targetPoint" />
          </mxGeometry>
        </mxCell>
        <mxCell id="1-i0P-AGlGG9_WLI7BTQ-1" value="审核课程申报" style="edgeLabel;html=1;align=center;verticalAlign=middle;resizable=0;points=[];fontFamily=宋体-简;" vertex="1" connectable="0" parent="1-i0P-AGlGG9_WLI7BTQ-0">
          <mxGeometry x="0.1426" y="6" relative="1" as="geometry">
            <mxPoint x="-2" y="6" as="offset" />
          </mxGeometry>
        </mxCell>
        <mxCell id="1-i0P-AGlGG9_WLI7BTQ-2" style="edgeStyle=orthogonalEdgeStyle;rounded=0;orthogonalLoop=1;jettySize=auto;html=1;exitX=0.25;exitY=0;exitDx=0;exitDy=0;curved=1;fontFamily=宋体-简;" edge="1" parent="WIyWlLk6GJQsqaUBKTNV-1" source="w6sRyr5rk-wQDd2xxj7X-91">
          <mxGeometry relative="1" as="geometry">
            <mxPoint x="800" y="550" as="sourcePoint" />
            <mxPoint x="840" y="510" as="targetPoint" />
          </mxGeometry>
        </mxCell>
        <mxCell id="1-i0P-AGlGG9_WLI7BTQ-3" value="向教师反馈" style="edgeLabel;html=1;align=center;verticalAlign=middle;resizable=0;points=[];fontFamily=宋体-简;" vertex="1" connectable="0" parent="1-i0P-AGlGG9_WLI7BTQ-2">
          <mxGeometry x="0.1426" y="6" relative="1" as="geometry">
            <mxPoint x="15" y="-6" as="offset" />
          </mxGeometry>
        </mxCell>
      </root>
    </mxGraphModel>
  </diagram>
</mxfile>
